<?xml version="1.0" encoding="UTF-8"?>
<svg id="Layer_1" xmlns="http://www.w3.org/2000/svg" version="1.1" viewBox="0 0 400 400">
  <path fill="currentColor" d="M362.6,215.3c-25.9-86.5-81.2-138.6-159.7-150.7-.6-.3-1.1-.4-1.8-.4-.3,0-.6,0-.9,0,0,0-.2,0-.3,0,0,0-.1,0-.2,0-.5,0-1,0-1.5.2-.2,0-.3.1-.5.2v-.2c-78.9,11.9-134.3,64.1-160.3,150.8-19,63.5-15.6,122.7-15.4,125.2l30.9-2c0-.6-3.3-56.9,14.4-115.1,22.4-73.9,66.8-116.9,132-127.8.4,0,.9,0,1.3,0,65.2,11,109.6,53.9,132,127.8,17.6,58.3,14.4,114.6,14.4,115.1l15.5,1,15.5,1c.2-2.5,3.7-61.7-15.4-125.2Z"/>
</svg>